PathFileType	4	(X/Y/Z)	C:/Users/beibeiliu/ov580/test_trc/User2\sequence.26_training_dense_right.trc
DataRate	CameraRate	NumFrames	NumMarkers	Units	OrigDataRate	OrigDataStartFrame	OrigNumFrames
120	120	22	19	mm	120	226	361
Frame#	Time	ThumbCMC			ThumbMCP			ThumbIP			ThumbTip			IndexMCP			IndexPIP			IndexTip			MiddleMCP			MiddlePIP			MiddleTip			RingMCP			RingPIP			RingTip			PinkyMCP			PinkyPIP			PinkyTip			BackHand1			BackHand2			BackHand3	
		X0	Y0	Z0	X1	Y1	Z1	X2	Y2	Z2	X3	Y3	Z3	X4	Y4	Z4	X5	Y5	Z5	X6	Y6	Z6	X7	Y7	Z7	X8	Y8	Z8	X9	Y9	Z9	X10	Y10	Z10	X11	Y11	Z11	X12	Y12	Z12	X13	Y13	Z13	X14	Y14	Z14	X15	Y15	Z15	X16	Y16	Z16	X17	Y17	Z17	X18	Y18	Z18	
225	1.875	44.7269	-27.2885	99.2983	25.4297	-47.5919	79.1618	9.55305	-61.3456	50.3525	5.1507	-73.319	26.0371	41.9443	15.4961	27.7604	23.4428	18.1935	0.696556	18.6028	6.76864	-26.9126	68.6979	17.0525	12.1949	59.9372	16.3987	-22.4846	54.0679	0.144224	-50.2107	84.8407	-17.8048	1.68443	70.6365	-43.1464	-4.1551	70.0655	-62.299	27.0409	99.1461	-36.3455	12.3362	86.12	-65.9768	19.1744	78.2436	-59.2169	53.3443	102.042	-1.0438	61.3996	116.227	-5.59268	93.8207	76.8302	5.33454	91.9851	
226	1.88333	48.2032	-26.0721	102.018	24.0299	-45.4012	74.3027	12.0527	-59.8498	48.7676	10.6592	-69.5185	19.6238	40.487	17.7344	32.4631	29.6653	20.3654	0.364008	21.9524	6.61507	-24.9447	71.9175	21.1023	12.2193	60.3103	19.2035	-21.5625	54.3474	-4.52215	-47.0736	83.3022	-13.7684	3.12746	73.3864	-39.2526	-4.43566	67.2972	-56.2539	26.6205	102.861	-31.6915	16.2695	83.5067	-58.8749	18.7293	76.9928	-57.763	50.2622	106.587	3.4021	62.0604	113.004	-3.3959	98.7668	75.5667	6.16949	91.8779	
227	1.89167	48.0812	-23.6701	101.218	24.1748	-44.6285	75.6379	16.6303	-57.498	43.9066	18.7168	-66.7112	21.2132	43.5237	21.6757	26.9272	29.2391	20.8323	-3.09338	22.3655	2.78482	-25.3987	72.9549	23.6599	13.3794	61.9025	19.9649	-20.6757	54.4793	-7.31564	-43.0894	83.8257	-11.4686	3.95946	71.4264	-37.7892	-3.66538	69.4389	-55.6433	30.8041	101.452	-30.8478	15.0134	82.5661	-58.0348	21.0707	80.7227	-54.5748	52.4125	105.639	4.23557	63.9417	113.6	-0.991925	100.026	79.4253	8.34506	93.6621	
228	1.9	41.1723	-22.2304	98.5337	22.7736	-43.4459	76.806	16.9647	-56.5056	43.5712	20.106	-66.3715	17.6157	44.0138	20.8796	29.1225	30.995	23.0655	0.882078	18.621	1.39451	-26.0341	73.6231	22.4374	16.8505	63.6392	19.8013	-19.2097	50.963	-8.44832	-41.5245	83.5705	-8.94569	8.59632	73.5489	-39.7848	-2.38142	67.5546	-54.0558	31.8668	104.804	-30.9538	16.7769	85.0559	-56.4421	18.1579	76.6598	-52.5201	52.0303	104.531	5.49631	67.672	111.621	0.663027	99.8039	73.026	11.7154	91.7066	
229	1.90833	41.6681	-22.7573	101.819	24.1688	-44.029	79.391	13.2129	-58.4925	47.0469	16.76	-69.2308	22.6544	41.7926	21.9834	29.9335	29.6275	23.0274	1.29426	20.7238	2.31463	-27.9305	67.4718	23.3313	18.8454	61.9133	18.7618	-21.8664	50.0361	-9.15829	-41.6437	80.8553	-9.27973	5.13659	70.9427	-39.006	-1.96281	67.5255	-54.6129	27.3566	101.201	-32.0158	14.3945	79.9686	-55.0031	21.8103	77.7943	-51.6049	53.5223	104.354	5.07048	63.7009	111.272	0.521632	102.257	72.8393	11.7792	93.825	
230	1.91667	43.8783	-22.4334	99.2828	23.9657	-44.732	76.9113	12.3045	-60.9699	49.9718	15.9051	-69.8049	22.0144	38.346	20.9651	31.5036	28.6015	21.716	3.65742	16.305	8.50529	-23.1236	69.497	22.117	18.7194	58.7468	21.0999	-19.8043	49.8533	-0.659529	-42.5348	79.375	-9.58333	9.04224	69.9919	-40.4138	-1.00628	64.2213	-54.247	31.9591	98.0491	-32.2396	15.7376	80.666	-58.6693	22.5706	76.4519	-54.7511	50.3629	104.924	3.37129	68.0151	113.646	-0.430723	101.696	71.5245	9.01756	95.1743	
231	1.925	38.7178	-24.6667	102.849	19.3845	-46.9335	78.5214	6.6307	-63.5536	52.7081	10.646	-72.7443	25.3759	33.3496	19.3754	32.9207	19.8767	21.329	1.75419	13.729	11.5568	-25.7501	66.946	20.7539	17.7527	57.3608	22.0798	-19.2754	52.1004	6.08855	-46.0502	77.6766	-10.7496	9.28464	68.7666	-37.5052	-2.83183	65.8366	-57.7253	26.7187	101.312	-31.8646	17.2794	80.9404	-60.3863	22.6382	71.6842	-56.4312	51.3185	100.32	4.25101	68.0676	109.767	1.73438	98.9964	71.8798	9.21314	92.5061	
232	1.93333	41.239	-25.9924	104.369	22.2928	-48.7087	81.0752	6.5819	-64.764	50.4963	4.61708	-77.4047	26.5118	32.241	17.6945	29.8118	19.9372	18.8715	2.92851	11.4232	14.2858	-22.9432	63.395	20.4302	15.3554	56.6461	23.0308	-15.2646	50.3512	11.3848	-51.5204	79.812	-13.2651	6.75298	66.2785	-42.2134	-0.776963	61.8573	-59.6062	29.0248	96.7773	-32.2541	17.3854	78.1244	-60.8536	22.6912	71.3731	-59.0755	49.4899	99.2946	3.62801	64.9481	110.028	-0.452453	102.794	66.0026	7.95463	96.4891	
233	1.94167	39.9861	-27.0915	103.623	19.495	-49.7983	80.66	6.20515	-65.9359	50.0656	1.15646	-80.0776	30.3507	31.9571	13.9782	32.7037	18.6086	18.7167	2.29565	11.6817	14.7116	-20.9197	59.4039	19.9038	18.9226	54.7588	22.8579	-14.502	49.529	18.1037	-49.6185	78.8823	-13.5221	8.71375	71.6013	-42.0456	-2.48026	65.3321	-62.9012	29.2481	99.1344	-33.0505	20.999	80.4495	-63.7791	25.0616	74.0127	-63.2342	53.1249	99.5507	3.42367	69.7518	105.488	2.12328	99.9496	69.0012	6.90073	94.3776	
234	1.95	41.7355	-28.2391	102.146	23.9527	-49.4125	75.8598	8.75664	-66.9366	48.0515	6.32164	-78.4341	26.6702	37.1976	14.5035	25.3258	26.0325	17.0064	-0.181307	13.4724	15.388	-25.8473	67.3581	17.1409	17.4483	62.0831	21.5903	-14.4671	59.5924	18.726	-50.5191	83.1776	-13.8192	8.6596	76.8441	-43.0059	-3.57171	66.8543	-62.4185	30.9274	104.889	-36.2514	20.1968	84.8351	-61.092	22.9755	74.3643	-61.3798	51.8846	100.653	4.59739	67.6493	106.791	1.78048	100.51	69.9492	6.22611	91.7471	
235	1.95833	42.4726	-26.5616	96.0724	26.0424	-48.828	75.6236	10.7231	-65.7203	45.5119	5.24685	-79.2191	26.0516	40.4769	12.4646	24.8912	30.1554	16.6227	-3.23385	29.2186	14.7651	-28.2344	73.2151	16.8738	14.6273	72.2214	20.1367	-20.3232	72.84	17.7575	-48.9457	92.1101	-15.1365	10.6528	86.161	-44.2589	-2.88022	75.4981	-62.3373	27.7492	107.672	-33.4015	22.3184	91.8046	-65.8344	27.5183	81.5033	-62.7636	53.7595	101.185	4.97461	69.7347	108.34	2.30243	101.373	71.3514	8.51101	90.0538	
236	1.96667	44.5292	-24.847	94.6966	28.9319	-46.7594	74.8547	16.665	-62.0581	42.846	11.2974	-75.0445	20.203	51.7226	12.4343	21.4761	40.5563	15.3025	-5.74551	35.7535	15.5311	-35.1883	82.6895	14.6543	12.8218	82.6429	16.9168	-19.1329	88.6499	12.9152	-54.8635	100.149	-18.9266	7.6513	93.7954	-47.1947	-2.10973	80.0876	-62.5831	27.4429	112.6	-37.3817	20.6395	95.5248	-63.3817	26.8736	81.6588	-60.6623	56.9935	110.86	2.18103	67.5775	111.635	0.203191	104.678	75.5158	7.59395	87.5086	
237	1.975	46.0035	-23.0259	91.5296	28.7442	-44.7944	69.4283	18.8348	-59.7893	40.1911	15.6823	-73.4069	18.4065	60.475	12.3837	19.533	56.4838	14.2641	-8.62172	53.7578	14.1471	-41.7877	92.5659	14.0627	8.71233	96.6963	13.2115	-24.2052	101.426	6.75314	-56.6082	106.212	-22.2717	5.94207	97.4339	-49.1394	-0.697586	86.0665	-65.1481	29.5434	119.494	-39.8055	23.2629	101.784	-68.9419	29.9711	87.0907	-61.5308	56.8673	111.467	4.21995	67.1638	112.697	2.43459	102.398	78.9038	9.65188	88.1296	
238	1.98333	50.0282	-22.7661	92.0536	34.7946	-43.7019	66.0504	19.9732	-60.8387	37.5403	18.9067	-74.6332	16.2665	68.9638	11.204	15.4453	61.6941	13.9079	-12.001	63.8476	9.32513	-42.3746	99.6607	11.2228	8.70308	107.96	7.63111	-27.7251	111.005	-0.638889	-54.9729	111.555	-24.2995	7.09983	104.301	-54.1473	0.309607	88.1251	-65.5399	35.3433	125.552	-44.3461	24.4433	104.876	-67.8164	28.9231	87.6384	-63.9159	57.1375	115.511	2.59013	68.3928	118.663	-1.2184	102.983	81.3577	9.43437	84.0987	
239	1.99167	49.6469	-23.2077	85.3955	37.2522	-43.3772	64.7479	25.1243	-62.1146	36.208	26.8904	-75.5365	9.28981	70.3783	11.0475	14.7305	71.5941	12.3891	-14.8064	73.1354	4.87893	-45.4218	104.974	9.0357	7.6964	114.466	5.44019	-24.9375	114.502	-8.63023	-57.8172	117.074	-28.9601	5.00039	106.455	-58.4961	2.184	90.9943	-67.0883	35.4627	129.85	-44.3696	26.2891	107.942	-68.502	29.3143	92.4085	-65.4395	60.5023	117.595	-0.981713	63.6491	117.328	-0.639797	99.1985	85.0277	6.93032	84.4295	
240	2	55.1912	-22.9887	85.5294	34.3195	-44.758	61.6574	27.8648	-62.4484	35.3827	28.5422	-77.8976	11.7016	78.6512	10.0103	10.7826	80.1979	9.43919	-20.6403	79.4162	-1.56563	-45.1104	109.428	6.89277	5.16428	114.898	1.44136	-26.5436	115.157	-19.4243	-59.1279	117.834	-29.7167	6.58093	105.987	-59.2929	2.0479	90.3662	-67.3295	30.1719	130.654	-49.3171	23.109	108.365	-70.7504	29.4332	94.2962	-64.5758	57.3972	123.124	-2.2162	66.8348	123.094	-0.920291	102.944	87.6159	8.22799	81.0263	
241	2.00833	54.1267	-22.5215	84.5201	34.852	-45.8709	60.3986	28.8679	-63.1271	32.703	34.9179	-77.2564	8.70697	78.0681	7.74931	11.7986	80.905	7.75412	-17.8428	80.5351	-6.96529	-45.3682	107.914	5.28252	5.1651	113.769	-1.57904	-28.6266	118.819	-26.4838	-53.1434	117.966	-31.0206	5.83164	106.547	-61.8097	2.30225	93.3445	-69.6517	32.5519	130.114	-47.8201	24.4828	108.566	-72.554	30.7131	93.9951	-64.3701	61.5947	122.003	-1.27644	65.7786	119.805	-2.24544	100.296	87.5835	7.25965	78.9079	
242	2.01667	53.0379	-22.8275	84.2437	37.4193	-44.5756	62.5012	24.6862	-64.2432	34.771	31.2895	-77.3808	13.959	73.6066	7.88954	14.4647	78.3615	6.66743	-18.0644	82.0536	-9.51433	-44.8734	107.243	3.52693	6.1612	111.299	-4.77844	-31.1859	115.42	-29.4588	-52.3749	116.934	-31.3639	8.02111	104.102	-61.4236	1.36541	90.8927	-69.8729	36.6625	129.665	-47.71	25.0075	106.349	-75.0633	32.3335	90.9804	-64.7775	60.9245	118.751	-3.68514	62.5248	121.217	-2.3896	100.438	85.8887	5.69891	83.4607	
243	2.025	50.4497	-24.2696	90.9355	33.4772	-45.5869	66.6326	23.6595	-63.0118	36.781	23.4211	-77.3163	14.1157	72.647	8.19944	10.5682	71.8702	6.84211	-17.4397	74.2707	-6.09338	-44.6327	103.523	3.36759	8.5147	110.553	-2.70174	-27.1198	110.712	-27.5789	-54.3784	111.632	-31.5216	6.14584	100.759	-59.5055	0.767594	86.9747	-69.7608	31.6188	123.254	-46.6899	24.0327	102.704	-72.9442	30.5215	91.7164	-65.7609	56.3222	120.771	-3.90175	61.9204	119.354	-3.70749	98.7316	83.0682	5.89839	82.8286	
244	2.03333	50.0751	-26.1428	93.3121	33.5062	-46.5713	67.3152	19.8727	-64.4967	37.5083	17.5069	-78.0914	16.9945	68.1119	5.75568	13.2106	65.5646	6.77092	-17.0158	65.3207	-3.30494	-46.5848	96.2036	4.95822	7.97186	105.058	-2.07292	-27.3155	105.115	-22.5106	-57.6027	110.18	-31.4906	5.25834	101.584	-61.3077	0.41722	84.2182	-70.4396	35.5439	122.96	-47.8776	22.8479	101.024	-73.1658	29.1125	89.0088	-65.9496	60.7248	115.245	-1.82331	65.0597	118.188	-4.32287	99.226	80.4075	5.00421	80.2225	
245	2.04167	48.5232	-26.9371	94.3556	30.6378	-47.4153	69.1405	17.8855	-64.0471	44.4388	14.1367	-79.1155	21.7791	61.2228	4.56986	16.5656	54.5237	7.04614	-11.5354	56.7656	1.25832	-44.7597	94.5601	4.97053	6.26375	98.0045	0.966313	-26.0261	99.9956	-10.7948	-56.626	107.754	-31.6976	5.75307	94.2802	-61.53	0.72111	84.6508	-72.3919	31.4201	119.423	-50.9112	20.4182	99.4274	-73.2248	28.243	85.591	-67.689	56.9215	112.986	-3.71866	60.8498	115.845	-3.72103	99.7554	78.0036	2.76888	84.1914	
246	2.05	44.7265	-27.7306	93.773	27.1972	-48.5961	70.8652	15.6958	-65.7001	46.0028	9.50089	-79.5985	23.0977	55.8713	3.43151	16.9379	47.7536	7.40123	-13.0659	46.4995	5.98974	-38.6702	88.7344	4.5006	4.42336	92.7237	2.2235	-27.3784	91.4849	-5.00226	-60.2507	98.2615	-29.8315	5.13033	92.2663	-63.0986	0.123954	82.3873	-73.8243	32.5776	115.501	-47.3419	20.7454	98.9533	-73.0923	24.4807	82.8812	-70.5559	57.8948	113.384	-3.21449	61.632	115.772	-3.90273	98.4631	75.2693	2.5218	85.275	
